<?xml version="1.0" standalone="no"?>
<!DOCTYPE svg PUBLIC "-//W3C//DTD SVG 20010904//EN"
 "http://www.w3.org/TR/2001/REC-SVG-20010904/DTD/svg10.dtd">
<svg version="1.0" xmlns="http://www.w3.org/2000/svg"
 width="512.000000pt" height="512.000000pt" viewBox="0 0 512.000000 512.000000"
 preserveAspectRatio="xMidYMid meet">

<g transform="translate(0.000000,512.000000) scale(0.100000,-0.100000)"
fill="#000000" stroke="none">
<path d="M1540 4559 c-260 -26 -455 -102 -625 -246 -177 -149 -293 -359 -342
-623 -17 -87 -18 -178 -18 -1125 0 -943 2 -1038 18 -1129 85 -474 389 -778
862 -863 92 -17 185 -18 1115 -18 777 0 1036 3 1103 13 411 60 718 304 843
670 70 205 69 181 69 1322 0 940 -1 1033 -18 1125 -83 466 -379 767 -848 861
-75 15 -191 17 -1079 19 -547 2 -1033 -1 -1080 -6z m1953 -269 c184 -13 262
-32 386 -92 89 -43 116 -62 187 -132 70 -71 89 -98 132 -187 28 -57 58 -137
67 -177 29 -133 36 -380 33 -1141 l-3 -743 -578 518 c-318 286 -593 527 -610
537 -43 23 -87 21 -128 -6 -26 -17 -641 -738 -858 -1006 l-28 -34 -224 179
c-123 99 -235 188 -249 197 -36 25 -110 22 -146 -5 -16 -12 -166 -157 -334
-322 l-305 -301 -7 85 c-10 138 -9 1683 2 1833 13 184 32 262 92 386 43 89 62
116 132 186 141 141 306 207 555 224 173 12 1723 12 1884 1z m128 -2236 c305
-273 576 -517 603 -542 l49 -46 -12 -60 c-7 -34 -35 -108 -63 -165 -43 -89
-62 -117 -132 -187 -71 -70 -98 -89 -187 -132 -206 -99 -290 -105 -1445 -99
-724 4 -883 7 -951 20 -110 20 -172 41 -268 90 -101 52 -224 172 -274 266
l-34 64 324 318 c178 175 326 318 329 318 3 1 106 -81 230 -181 124 -99 239
-189 255 -199 41 -26 95 -24 135 4 19 12 223 248 454 524 232 277 424 503 427
503 4 0 256 -223 560 -496z"/>
<path d="M1740 3561 c-212 -43 -252 -329 -59 -425 223 -111 427 149 274 350
-42 55 -141 90 -215 75z"/>
</g>
</svg>
